<svg width="70" height="70" viewBox="0 0 70 70" fill="none" xmlns="http://www.w3.org/2000/svg">
<path d="M58.8 35C58.8 48.16 48.16 58.8 35 58.8C21.84 58.8 11.2 48.16 11.2 35C11.2 21.84 21.84 11.2 35 11.2C48.16 11.2 58.8 21.84 58.8 35ZM14 35C14 46.62 23.38 56 35 56C46.62 56 56 46.62 56 35C56 23.38 46.62 14 35 14C23.38 14 14 23.38 14 35Z" fill="white"/>
<path d="M37.3801 23.3799L25.7601 34.9999L37.3801 46.62L35.4201 48.58L21.8401 34.9999L35.4201 21.4199L37.3801 23.3799Z" fill="white"/>
<path d="M23.8 36.4V33.6H47.6001V36.4H23.8Z" fill="white"/>
</svg>
