<svg id="OBJECT" xmlns="http://www.w3.org/2000/svg" viewBox="0 0 600.973 386.525"><defs><style>.cls-1{fill:#5d6d7e;}</style></defs><title>grid</title><rect class="cls-1" y="31.245" width="600.973" height="0.39"/><rect class="cls-1" y="60.667" width="600.973" height="0.39"/><rect class="cls-1" y="90.09" width="600.973" height="0.39"/><rect class="cls-1" y="119.512" width="600.973" height="0.39"/><rect class="cls-1" y="148.935" width="600.973" height="0.39"/><rect class="cls-1" y="178.357" width="600.973" height="0.39"/><rect class="cls-1" y="207.78" width="600.973" height="0.39"/><rect class="cls-1" y="237.202" width="600.973" height="0.391"/><rect class="cls-1" y="266.626" width="600.973" height="0.389"/><rect class="cls-1" y="296.046" width="600.973" height="0.391"/><rect class="cls-1" y="325.47" width="600.973" height="0.389"/><rect class="cls-1" y="354.892" width="600.973" height="0.39"/><rect class="cls-1" x="30.541" width="0.418" height="386.525"/><rect class="cls-1" x="64.258" width="0.419" height="386.525"/><rect class="cls-1" x="97.975" width="0.418" height="386.525"/><rect class="cls-1" x="131.691" width="0.419" height="386.525"/><rect class="cls-1" x="165.409" width="0.419" height="386.525"/><rect class="cls-1" x="199.126" width="0.419" height="386.525"/><rect class="cls-1" x="232.843" width="0.419" height="386.525"/><rect class="cls-1" x="266.559" width="0.419" height="386.525"/><rect class="cls-1" x="300.277" width="0.42" height="386.525"/><rect class="cls-1" x="333.993" width="0.419" height="386.525"/><rect class="cls-1" x="367.711" width="0.419" height="386.525"/><rect class="cls-1" x="401.429" width="0.418" height="386.525"/><rect class="cls-1" x="435.144" width="0.419" height="386.525"/><rect class="cls-1" x="468.861" width="0.418" height="386.525"/><rect class="cls-1" x="502.578" width="0.421" height="386.525"/><rect class="cls-1" x="536.296" width="0.419" height="386.525"/><rect class="cls-1" x="570.013" width="0.419" height="386.525"/></svg>