<svg width="110" height="110" viewBox="0 0 110 110" fill="none" xmlns="http://www.w3.org/2000/svg">
<path d="M57.023 6.22288C49.3663 6.22073 41.8262 8.09906 35.0653 11.6928C28.3044 15.2866 22.5295 20.4859 18.2482 26.8337C13.9668 33.1816 11.31 40.4838 10.5111 48.0987C9.71224 55.7137 10.7958 63.4083 13.6665 70.5064C13.8205 70.8859 13.8981 71.2919 13.8951 71.7014C13.8921 72.1108 13.8084 72.5157 13.649 72.8928C13.4895 73.2699 13.2573 73.612 12.9656 73.8994C12.674 74.1868 12.3286 74.4139 11.9491 74.5678C11.5697 74.7217 11.1636 74.7994 10.7542 74.7963C10.3447 74.7933 9.93988 74.7097 9.56275 74.5502C9.18562 74.3907 8.84359 74.1585 8.5562 73.8669C8.2688 73.5752 8.04167 73.2298 7.88776 72.8504C3.3069 61.5209 2.78289 48.9563 6.40448 37.2848C10.0261 25.6132 17.5706 15.5522 27.7603 8.80595C37.9499 2.05966 50.1582 -0.957209 62.3173 0.266342C74.4764 1.48989 85.8388 6.87864 94.48 15.5199C103.121 24.1611 108.51 35.5235 109.734 47.6826C110.957 59.8417 107.94 72.05 101.194 82.2396C94.4476 92.4292 84.3866 99.9738 72.7151 103.595C61.0435 107.217 48.479 106.693 37.1495 102.112C36.3887 101.798 35.7828 101.196 35.4642 100.438C35.1455 99.6787 35.1398 98.8247 35.4485 98.0618C35.7571 97.2988 36.355 96.6889 37.1116 96.3651C37.8682 96.0413 38.7222 96.0299 39.4872 96.3333C45.8798 98.9131 52.7639 100.047 59.6463 99.6549C66.5287 99.2624 73.2391 97.3528 79.297 94.0629C85.3549 90.773 90.6104 86.1842 94.6869 80.6252C98.7635 75.0661 101.56 68.6744 102.877 61.9078C104.194 55.1411 103.998 48.167 102.304 41.4849C100.609 34.8028 97.4583 28.5781 93.0762 23.2565C88.6942 17.935 83.1895 13.6483 76.9566 10.7035C70.7236 7.75867 63.9166 6.22861 57.023 6.22288Z" fill="#3498DB"/>
<path d="M22.737 52.9767C22.737 61.3238 25.7168 68.9727 30.6727 74.9198L27.6804 77.9121H18.1863C15.7071 77.9143 13.3303 78.9009 11.5784 80.655L1.36734 90.8598C0.714302 91.5136 0.269675 92.3463 0.0896138 93.2527C-0.0904472 94.1591 0.00213405 95.0986 0.355664 95.9524C0.709195 96.8062 1.30782 97.5361 2.07592 98.0499C2.84403 98.5637 3.74717 98.8383 4.67128 98.8391H11.1545V105.322C11.1553 106.246 11.4299 107.15 11.9437 107.918C12.4575 108.686 13.1874 109.284 14.0412 109.638C14.895 109.991 15.8345 110.084 16.7409 109.904C17.6473 109.724 18.48 109.279 19.1338 108.626L29.3386 98.4152C31.0935 96.6658 32.0823 94.2915 32.0878 91.8136V82.3257L35.08 79.3334C41.0719 84.3242 48.586 87.1233 56.3827 87.269C64.1794 87.4146 71.7928 84.8981 77.9669 80.1347C84.141 75.3712 88.5069 68.6454 90.3441 61.0668C92.1814 53.4883 91.3804 45.5098 88.0732 38.4478C84.766 31.3858 79.1502 25.6621 72.1524 22.2211C65.1546 18.7801 57.1929 17.8273 49.5807 19.5201C41.9686 21.2128 35.1609 25.4498 30.2808 31.5321C25.4007 37.6144 22.7397 45.1786 22.737 52.9767ZM57.0232 24.9243C61.5039 24.9258 65.919 26.0006 69.8991 28.0587C73.8792 30.1168 77.3083 33.0984 79.8996 36.7538C82.4908 40.4093 84.1687 44.6322 84.7928 49.0693C85.4169 53.5063 84.9691 58.0283 83.4868 62.2567C82.0045 66.4851 79.5309 70.297 76.2731 73.3732C73.0152 76.4494 69.0678 78.7005 64.7614 79.9379C60.455 81.1754 55.9148 81.3633 51.5208 80.4859C47.1268 79.6085 43.007 77.6914 39.506 74.8949L50.6833 63.7176C53.2974 65.2589 56.3838 65.7939 59.3641 65.2223C62.3444 64.6508 65.0139 63.0119 66.8723 60.6129C68.7306 58.2138 69.6502 55.2194 69.4587 52.1908C69.2671 49.1623 67.9776 46.3076 65.8318 44.1618C63.686 42.016 60.8313 40.7265 57.8028 40.5349C54.7742 40.3434 51.7798 41.263 49.3807 43.1213C46.9817 44.9797 45.3428 47.6492 44.7713 50.6295C44.1997 53.6098 44.7347 56.6962 46.276 59.3103L35.1049 70.4876C31.8073 66.3603 29.742 61.3858 29.1469 56.1365C28.5519 50.8873 29.4512 45.5767 31.7413 40.816C34.0314 36.0553 37.6193 32.038 42.092 29.2266C46.5646 26.4152 51.7403 24.9239 57.0232 24.9243ZM15.9857 85.0561C16.2757 84.7668 16.6199 84.5376 16.9985 84.3814C17.3772 84.2252 17.7829 84.1452 18.1925 84.1459H25.8539V91.8073C25.8521 92.6333 25.5225 93.4248 24.9375 94.0079L17.3946 101.551V95.7222C17.3946 94.8955 17.0662 94.1027 16.4816 93.5182C15.8971 92.9337 15.1043 92.6053 14.2776 92.6053H8.44276L15.9857 85.0561Z" fill="#3498DB"/>
</svg>
