<svg width="45" height="34" viewBox="0 0 45 34" fill="none" xmlns="http://www.w3.org/2000/svg">
<g clip-path="url(#clip0_2_24)">
<path d="M0 0H45V33.75H0V0Z" fill="#012169"/>
<path d="M5.27344 0L22.4297 12.7266L39.5156 0H45V4.35938L28.125 16.9453L45 29.4609V33.75H39.375L22.5 21.1641L5.69531 33.75H0V29.5312L16.8047 17.0156L0 4.5V0H5.27344Z" fill="white"/>
<path d="M29.8125 19.7578L45 30.9375V33.75L25.9453 19.7578H29.8125ZM16.875 21.1641L17.2969 23.625L3.79688 33.75H0L16.875 21.1641ZM45 0V0.210938L27.4922 13.4297L27.6328 10.3359L41.4844 0H45ZM0 0L16.8047 12.375H12.5859L0 2.95312V0Z" fill="#C8102E"/>
<path d="M16.9453 0V33.75H28.1953V0H16.9453ZM0 11.25V22.5H45V11.25H0Z" fill="white"/>
<path d="M0 13.5703V20.3203H45V13.5703H0ZM19.1953 0V33.75H25.9453V0H19.1953Z" fill="#C8102E"/>
</g>
<defs>
<clipPath id="clip0_2_24">
<rect width="45" height="33.75" rx="6" fill="white"/>
</clipPath>
</defs>
</svg>
