<svg width="22" height="25" viewBox="0 0 22 25" fill="none" xmlns="http://www.w3.org/2000/svg">
<path d="M1 14.3334V9.88895C1 5.69895 1 3.60339 2.30222 2.30228C3.60444 1.00117 5.69889 1.00006 9.88889 1.00006H12.1111C16.3011 1.00006 18.3967 1.00006 19.6978 2.30228C20.4244 3.02784 20.7456 4.00006 20.8867 5.44451M21 9.88895V14.3334C21 18.5234 21 20.619 19.6978 21.9201C18.3956 23.2212 16.3011 23.2223 12.1111 23.2223H9.88889C5.69889 23.2223 3.60333 23.2223 2.30222 21.9201C1.57556 21.1945 1.25444 20.2223 1.11333 18.7778M6.55556 14.3334H12.1111M6.55556 9.88895H7.66667M15.4444 9.88895H11" stroke="white" stroke-width="2" stroke-linecap="round"/>
</svg>
