<svg width="110" height="110" viewBox="0 0 110 110" fill="none" xmlns="http://www.w3.org/2000/svg">
<g clip-path="url(#clip0_41_67)">
<path d="M81.125 42.1437C81.5229 41.6584 81.8194 41.0982 81.9971 40.4963C82.1748 39.8944 82.23 39.263 82.1595 38.6393C82.089 38.0157 81.8942 37.4126 81.5866 36.8655C81.2791 36.3185 80.8649 35.8386 80.3688 35.4544C79.3595 34.6647 78.0817 34.3005 76.8078 34.4392C75.5339 34.5779 74.3645 35.2086 73.5488 36.1969L50.7925 64.1093L38.6238 54.7594C37.6297 53.9503 36.359 53.5615 35.0825 53.6758C33.8059 53.7901 32.6245 54.3985 31.79 55.3712C31.3823 55.8483 31.0744 56.4022 30.8844 57.0003C30.6944 57.5984 30.6263 58.2286 30.6839 58.8534C30.7416 59.4783 30.924 60.0853 31.2202 60.6385C31.5165 61.1918 31.9206 61.68 32.4088 62.0744L48.3588 74.5181C49.366 75.3374 50.6564 75.7249 51.9483 75.5961C53.2403 75.4673 54.4288 74.8326 55.2544 73.8306L81.1044 42.0681L81.125 42.1437Z" fill="#3498DB"/>
<path fill-rule="evenodd" clip-rule="evenodd" d="M44.7562 4.90872C48.4275 2.21372 50.2631 0.866217 52.25 0.343717C54.0254 -0.10676 55.8852 -0.10676 57.6606 0.343717C59.6681 0.866217 61.5106 2.21372 65.1543 4.90872L69.8087 8.32559C71.0806 9.26059 71.72 9.72809 72.4075 10.0925C73.0216 10.4133 73.661 10.6791 74.3256 10.89C75.075 11.1168 75.8518 11.2337 77.4125 11.4743L83.1187 12.3475C87.6218 13.035 89.87 13.3856 91.6437 14.4375C93.225 15.3656 94.545 16.6856 95.4731 18.2668C96.525 20.0543 96.8687 22.3093 97.5631 26.7918L98.4362 32.4981C98.6768 34.0587 98.7937 34.8425 99.0206 35.5918C99.2268 36.2564 99.4927 36.8935 99.8181 37.5031C100.189 38.1906 100.65 38.83 101.585 40.1018L105.002 44.7562C107.697 48.4275 109.044 50.2631 109.567 52.25C110.017 54.0254 110.017 55.8852 109.567 57.6606C109.051 59.6681 107.697 61.5106 105.002 65.1543L101.585 69.8087C100.931 70.6288 100.34 71.4975 99.8181 72.4075C99.4919 73.0225 99.2249 73.667 99.0206 74.3325C98.7937 75.075 98.6768 75.8518 98.4362 77.4125L97.5631 83.1187C96.8756 87.6218 96.525 89.87 95.4731 91.6437C94.545 93.225 93.225 94.5381 91.6437 95.4731C89.8562 96.525 87.6012 96.8687 83.1187 97.5631L77.4125 98.4362C76.37 98.5545 75.338 98.7522 74.3256 99.0275C73.661 99.2291 73.0216 99.495 72.4075 99.825C71.72 100.189 71.0806 100.65 69.8087 101.592L65.1543 105.009C61.4831 107.704 59.6475 109.051 57.6606 109.574C55.8852 110.024 54.0254 110.024 52.25 109.574C50.2425 109.051 48.4 107.704 44.7562 105.009L40.1018 101.592C39.2818 100.938 38.413 100.347 37.5031 99.825C36.8903 99.4992 36.2481 99.2322 35.585 99.0275C34.5725 98.7522 33.5406 98.5545 32.4981 98.4362L26.7918 97.5631C22.2887 96.8756 20.0337 96.5318 18.2668 95.4731C16.6912 94.5357 15.3749 93.2194 14.4375 91.6437C13.3856 89.8562 13.0418 87.6012 12.3475 83.1187L11.4743 77.4125C11.2337 75.8518 11.1168 75.075 10.89 74.3256C10.6894 73.661 10.4222 73.0184 10.0925 72.4075C9.57045 71.4975 8.97978 70.6288 8.32559 69.8087L4.90872 65.1543C2.21372 61.4831 0.866217 59.6543 0.343717 57.6606C-0.10676 55.8852 -0.10676 54.0254 0.343717 52.25C0.859342 50.2425 2.21372 48.4 4.90872 44.7562L8.32559 40.1018C9.26059 38.83 9.72809 38.1906 10.0925 37.5031C10.4133 36.8889 10.6791 36.2496 10.89 35.585C11.1168 34.8356 11.2337 34.0587 11.4743 32.4981L12.3475 26.7918C13.035 22.2887 13.3856 20.0337 14.4375 18.2668C15.3656 16.6856 16.6856 15.3793 18.2668 14.4375C20.0543 13.3856 22.3093 13.0418 26.7918 12.3475L32.4981 11.4743C34.0587 11.2406 34.8425 11.1168 35.585 10.89C36.2496 10.6837 36.8889 10.4179 37.5031 10.0925C38.1906 9.72809 38.83 9.26059 40.1018 8.32559L44.7562 4.90872ZM61.1187 10.45L66.0068 14.0387C67.045 14.8018 68.0693 15.5512 69.2106 16.1631C70.2189 16.6993 71.2639 17.1325 72.3456 17.4625C73.5821 17.8044 74.841 18.0594 76.1131 18.2256L82.1081 19.1468C87.2025 19.9306 87.835 20.1437 88.2062 20.3637C88.7883 20.7121 89.2512 21.175 89.595 21.7525C89.815 22.1237 90.035 22.7562 90.8118 27.8506L91.7331 33.8456C91.8993 35.1177 92.1543 36.3766 92.4962 37.6131C92.8308 38.7039 93.2639 39.7489 93.7956 40.7481C94.4006 41.8893 95.1568 42.9137 95.92 43.9518L99.5087 48.84C102.561 52.9925 102.85 53.5906 102.96 54.0168C103.118 54.6627 103.118 55.3373 102.96 55.9831C102.85 56.4025 102.561 57.0006 99.5087 61.16L95.92 66.0481C95.1568 67.0862 94.4006 68.1106 93.7956 69.2518C93.264 70.2533 92.8289 71.303 92.4962 72.3868C92.1543 73.6233 91.8993 74.8822 91.7331 76.1543L90.8118 82.1493C90.0281 87.2437 89.815 87.8762 89.595 88.2475C89.2506 88.8154 88.7742 89.2919 88.2062 89.6362C87.835 89.8562 87.2025 90.0762 82.1081 90.8531L76.1131 91.7743C74.841 91.9405 73.5821 92.1955 72.3456 92.5375C71.2617 92.8702 70.212 93.3053 69.2106 93.8368C68.0693 94.4418 67.045 95.1981 66.0068 95.9612L61.1187 99.55C56.9662 102.602 56.3681 102.891 55.9418 103.001C55.296 103.16 54.6214 103.16 53.9756 103.001C53.5562 102.891 52.9581 102.602 48.7987 99.55L43.9106 95.9612C42.8935 95.1792 41.823 94.4694 40.7068 93.8368C39.7054 93.3053 38.6557 92.8702 37.5718 92.5375C36.3353 92.1955 35.0764 91.9405 33.8043 91.7743L27.8093 90.8531C22.715 90.0693 22.0825 89.8562 21.7112 89.6362C21.1432 89.2919 20.6668 88.8154 20.3225 88.2475C20.1025 87.8762 19.8825 87.2437 19.1056 82.1493L18.1843 76.1543C18.0182 74.8822 17.7632 73.6233 17.4212 72.3868C17.0885 71.303 16.6534 70.2533 16.1218 69.2518C15.5168 68.1106 14.7606 67.0862 13.9975 66.0481L10.4087 61.16C7.35622 57.0075 7.06747 56.4093 6.95747 55.9831C6.79898 55.3373 6.79898 54.6627 6.95747 54.0168C7.06747 53.5975 7.35622 52.9993 10.4087 48.84L13.9975 43.9518C14.7606 42.9137 15.5168 41.8893 16.1218 40.7481C16.6535 39.7398 17.0866 38.6948 17.4212 37.6131C17.7632 36.3766 18.0182 35.1177 18.1843 33.8456L19.1056 27.8506C19.8893 22.7562 20.1025 22.1237 20.3225 21.7525C20.6668 21.1845 21.1432 20.7081 21.7112 20.3637C22.0825 20.1437 22.715 19.9237 27.8093 19.1468L33.8043 18.2256C35.0764 18.0594 36.3353 17.8044 37.5718 17.4625C38.6627 17.1279 39.7077 16.6948 40.7068 16.1631C41.8481 15.5581 42.8725 14.8018 43.9106 14.0387L48.7987 10.45C52.9512 7.39747 53.5493 7.10872 53.9756 6.99872C54.6214 6.84023 55.296 6.84023 55.9418 6.99872C56.3612 7.10872 56.9593 7.39747 61.1187 10.45Z" fill="#3498DB"/>
</g>
<defs>
<clipPath id="clip0_41_67">
<rect width="110" height="110" fill="white"/>
</clipPath>
</defs>
</svg>
