<svg id="OBJECTS" xmlns="http://www.w3.org/2000/svg" xmlns:xlink="http://www.w3.org/1999/xlink" viewBox="0 0 223.929 253.073"><defs><style>.cls-1,.cls-10,.cls-12,.cls-7,.cls-9{fill:none;}.cls-2{fill:#b75f1d;}.cls-3{fill:#2d7daa;}.cls-4,.cls-8{fill:#3498db;}.cls-4{opacity:0.2;}.cls-5{fill:#fff;}.cls-6{clip-path:url(#clip-path);}.cls-12,.cls-7,.cls-9{stroke:#2e4053;}.cls-7{stroke-miterlimit:10;}.cls-10,.cls-12,.cls-9{stroke-linecap:round;stroke-linejoin:round;}.cls-10{stroke:#1c1c1b;}.cls-11{fill:#e67e22;}.cls-12{stroke-width:2px;}</style><clipPath id="clip-path" transform="translate(-397.731 -106.276)"><circle class="cls-1" cx="503.202" cy="232.813" r="104.713"/></clipPath></defs><title>earth</title><path class="cls-2" d="M463.128,333.689c3.494,14.077,19.826,9.751,29.227,3.28a104.047,104.047,0,0,1-30.046-7.731A38.963,38.963,0,0,0,463.128,333.689Z" transform="translate(-397.731 -106.276)"/><path class="cls-3" d="M505.549,128.129a104.512,104.512,0,0,1,29.733,4.984c-0.117-.6-0.239-1.193-0.385-1.785C531.387,117.192,514.93,121.613,505.549,128.129Z" transform="translate(-397.731 -106.276)"/><circle class="cls-4" cx="105.471" cy="126.536" r="104.713"/><path class="cls-5" d="M539.461,232.155c-2.458-.991-4.8-2.375-7.493-2.466a15.071,15.071,0,0,0-.57,4.184c0.138,4.229,2.322,7.468,5.531,10.028,1.534,1.224,6.276,5.516,7.829,2.378-0.786-3.652-2.9-6.329-4.148-9.694C540.044,235.06,540.337,233.365,539.461,232.155Z" transform="translate(-397.731 -106.276)"/><path class="cls-5" d="M561.538,169.052q-0.125-.253-0.259-0.5a32.01,32.01,0,0,0-5.688-7.091,25.2,25.2,0,0,0-5.491-4.507c-1.373-.761-4.53-1.313-4.254-3.493a3.822,3.822,0,0,1,1.881-2.34l2.812-2.011a5.147,5.147,0,0,0,1.08-.935c2.744-3.457-5.3-6.525-7.593-7.281a23.375,23.375,0,0,0-6.2-1.154c-1.768-.085-4.644-0.268-6.262.578a22.7,22.7,0,0,1-12.021,2.286c-3.893-.259-8.193-2.232-11.684.477-1.744,1.353-2.694,3.588-4.568,4.755-3.453,2.149-8.163-.28-11.967,1.158-1.246.471-2.34,1.345-3.646,1.613-2.944.6-5.546-1.989-8.49-2.593a8.439,8.439,0,0,0-7.274,2.411c-1.954,1.852-2.613,4.427-4.33,6.39-1.967,2.249-5,3.51-7.579,4.854-0.564.293-2.428,2.353-2.551,1.071a81.753,81.753,0,0,1-10.105.87c-0.678.01-1.369,0.035-2.066,0.07-0.82.21-1.636,0.429-2.446,0.664-4.113,1.2-9.052,2.838-12.4,5.906-0.88.806,2.007,5.164,2.506,5.8,1.212,1.54,2.248,2.776,4.335,2.947s4.18-.139,6.261.035a13.817,13.817,0,0,1,11.321,8.194,2.822,2.822,0,0,1,.3,1.574,3.133,3.133,0,0,1-.444,1.006c-2.77,4.688-8.111,5.77-13.125,4.1a23.757,23.757,0,0,1-10.274-6.817c-1.485-1.689-2.865-3.69-5-4.389-12-4-19.915,18.168-22.137,26.246a5.246,5.246,0,0,0-.275,2.319c0.166,0.9.785,1.861,0.3,2.633a8.041,8.041,0,0,1-.595.658c-0.662.832-.284,2.128-0.831,3.04-0.416.693-1.3,1.042-1.613,1.786a2.85,2.85,0,0,0,.02,1.714,10.376,10.376,0,0,0,1.323,3.69c1.493,2.187,6.3,2.214,6.853,4.932a12.02,12.02,0,0,0,.189,2.239,2.646,2.646,0,0,0,2.1,1.325c2.489,0.45,5.085-.285,7.564.215,2.869,0.579,6.519,6.9,6.127,9.611-0.694,4.809,2.275,3.945,3.483,7.8,0.824,2.626-.071,6.154.808,9.183,2.09,7.2,3.579,18.253,7.894,24.409s12.606,2.929,16.123-2.818c1.311-2.142,1.746-5.243,2.179-7.675,0.457-2.566.747-5.159,1.12-7.738a116.275,116.275,0,0,1,5.628-22.641c0.97-2.7,3.505-4.808,5.444-6.89,2.148-2.306,4.338-4.7,5.512-7.676a4.687,4.687,0,0,0,.407-2.433c-0.508-3.143-4.93-3.107-7.986-4a8.753,8.753,0,0,1-6.115-7.57,2.817,2.817,0,0,1,.45-2.006c1.175-1.438,3.552-.04,4.383,1.62s1.337,3.79,3.065,4.47c2.636,1.038,4.8-2.2,7.255-3.605,3.545-2.026,9.559-1.081,10.493-5.055,0.667-2.84-2.347-5.094-5-6.3s-5.847-2.825-5.963-5.739c1.406-.541,2.955.164,4.294,0.854,10.577,5.45,21.855,11.6,26.994,22.332,1.02,2.131,1.834,4.487,3.643,6.006s5.066,1.622,6.15-.476A6.855,6.855,0,0,0,516,224c0.013-4.118,1.6-8.376,4.854-10.9,4.311-3.344,10.266-2.541,12.992,2.362,1.441,2.591,1.176,5.1.983,7.934-0.073,1.069-.33,2.814.243,3.768,0.9,1.5,2.685.978,3.852-.223,1.456-1.5,1.194-3.428,3.735-3.173,2.2,0.221,4,2.323,6.317,1.451,2.062-.775,2.552-3.611,1.782-5.677s-2.383-3.7-3.457-5.631-1.494-4.579.027-6.18a4.726,4.726,0,0,1,3.807-1.213c3.807,0.671,9.748.671,9.645-5.564a15.068,15.068,0,0,0-1.427-5.43c-1.938-4.627-4.624-8.869-6.607-13.413a2.355,2.355,0,0,1,.329-2.754,2.412,2.412,0,0,1,1.432-.424c1.328-.049,2.733.11,4.048,0.161,1.116,0.044,2.469.589,3.434-.24a2.782,2.782,0,0,0,.773-1.506A12.365,12.365,0,0,0,561.538,169.052Z" transform="translate(-397.731 -106.276)"/><path class="cls-5" d="M589.952,266.433c2.367,6.427,5.7,14.889,1.07,21.074a23.054,23.054,0,0,1-4.726,4.159,44.985,44.985,0,0,0-8.388,8.4,9.272,9.272,0,0,1-2.414,2.511,2.787,2.787,0,0,1-3.262-.1,3,3,0,0,1-.52-3.044c0.321-1.037.943-1.954,1.348-2.96a8.455,8.455,0,0,0-1.989-8.884c-6.341-6.335-12.776-.08-19.544.462-1.108.089-2.431-.217-2.851-1.246a3.238,3.238,0,0,1,.02-1.881l2.434-11.5c0.411-1.944.893-4.016,2.344-5.373,2.593-2.423,7.049-1.5,9.849-3.682,1.714-1.335,2.443-3.554,3.771-5.274a9.244,9.244,0,0,1,9.222-3.27,3.11,3.11,0,0,1,1.748.925c0.838,1.026.379,2.533,0.037,3.812a7.322,7.322,0,0,0,.137,5,3.591,3.591,0,0,0,4.182,2.048c3.842-1.4,1.573-7.731,4.618-10.066C588.831,258.3,589.22,264.444,589.952,266.433Z" transform="translate(-397.731 -106.276)"/><path class="cls-5" d="M577.425,245.786a6.371,6.371,0,0,0,1.631,3.25c2.108,1.9,6.008,1.685,8.543,2.919,2.014,0.981,3.995,4.4,5.911,4.865,3.176,0.764,1.255-3.1.442-5.015a28.47,28.47,0,0,0-7.64-10.8C581.233,236.838,575.6,238.691,577.425,245.786Z" transform="translate(-397.731 -106.276)"/><path class="cls-5" d="M559.286,241.739a4.15,4.15,0,0,0,.718-3.055,9.778,9.778,0,0,1,.01-3.206c0.5-1.882,2.507-3.567,1.785-5.377-0.55-1.38-2.5-1.709-3.82-1.037a8,8,0,0,0-2.926,3.278,8.371,8.371,0,0,1-2.888,3.318,2.35,2.35,0,0,0-1.081.795,1.517,1.517,0,0,0-.136.728C550.973,240.023,557.149,244.181,559.286,241.739Z" transform="translate(-397.731 -106.276)"/><g class="cls-6"><ellipse class="cls-7" cx="105.471" cy="126.536" rx="71.492" ry="126.036"/><line class="cls-7" x1="104.713" y1="21.823" x2="104.713" y2="232.331"/><line class="cls-7" x1="209.427" y1="126.536" y2="126.536"/><path class="cls-7" d="M466.868,232.813c0,69.608,17.783,126.036,37.85,126.036s36.334-56.428,36.334-126.036S523.269,106.776,503.2,106.776,466.868,163.2,466.868,232.813Z" transform="translate(-397.731 -106.276)"/><line class="cls-7" x1="0.741" y1="85.403" x2="223.929" y2="85.403"/><line class="cls-7" x1="0.741" y1="51.34" x2="223.929" y2="51.34"/><line class="cls-7" x1="0.741" y1="196.743" x2="223.929" y2="196.743"/><line class="cls-7" x1="0.741" y1="162.68" x2="223.929" y2="162.68"/></g><path class="cls-8" d="M466.09,225.979c1.967-21.172,6.823-44.374,14.379-63.349,7.58-19.035,24.763-41.44,43.293-40.766,0,0-37.622-5.076-49.582.225-19.765,8.76-27.4,23.359-37.421,48.993-6.933,17.738-9.316,36.451-10.127,55.411C426.362,232.812,465.46,232.765,466.09,225.979Z" transform="translate(-397.731 -106.276)"/><path class="cls-9" d="M489.937,145.547A91.782,91.782,0,0,1,502.02,131c5.834-5.689,18.665-11.559,26.66-7.879" transform="translate(-397.731 -106.276)"/><path class="cls-9" d="M475.87,177.329a102.394,102.394,0,0,1,10.864-26.676" transform="translate(-397.731 -106.276)"/><path class="cls-10" d="M467.379,250" transform="translate(-397.731 -106.276)"/><polygon class="cls-8" points="12.662 115.423 42.833 156.526 84.76 115.423 12.662 115.423"/><path class="cls-11" d="M531.934,239.039c-1.967,21.172-6.822,44.374-14.379,63.349-7.581,19.035-24.763,41.44-43.293,40.766,0,0,37.622,5.076,49.582-.225,19.765-8.76,27.4-23.359,37.421-48.993,6.933-17.738,9.316-36.45,10.127-55.411C571.662,232.206,532.564,232.252,531.934,239.039Z" transform="translate(-397.731 -106.276)"/><path class="cls-9" d="M508.087,319.47A91.787,91.787,0,0,1,496,334.015c-5.834,5.689-18.665,11.559-26.66,7.879" transform="translate(-397.731 -106.276)"/><path class="cls-9" d="M522.154,287.688a102.388,102.388,0,0,1-10.864,26.676" transform="translate(-397.731 -106.276)"/><path class="cls-10" d="M527.055,221" transform="translate(-397.731 -106.276)"/><polygon class="cls-11" points="189.901 138.837 156.994 99.274 117.802 138.837 189.901 138.837"/><polyline class="cls-12" points="144.64 146.321 154.366 121.836 163.905 146.321"/><line class="cls-12" x1="147.296" y1="139.525" x2="161.204" y2="139.525"/><path class="cls-12" d="M435.568,238.264A28.742,28.742,0,0,0,451.8,217.4" transform="translate(-397.731 -106.276)"/><path class="cls-12" d="M451.8,238.264a28.769,28.769,0,0,1-14.023-13.943" transform="translate(-397.731 -106.276)"/><path class="cls-12" d="M432.213,217.166c0,0.088,23.986,0,23.734,0" transform="translate(-397.731 -106.276)"/><line class="cls-12" x1="46.407" y1="108.126" x2="46.407" y2="110.939"/></svg>