<svg id="Layer_1" data-name="Layer 1" xmlns="http://www.w3.org/2000/svg" viewBox="0 0 73.454 88.774"><defs><style>.cls-1{fill:#2e4053;}.cls-2{fill:#3498db;}</style></defs><title>en-favicon</title><path class="cls-1" d="M437.3,221.641s-2.373,2.769-2.373,8.789v12.744h1.318a22.7,22.7,0,0,0,3.472-2.769l12.612-13.052c1.274-1.362,1.494-3.032-2.329-3.516v-2.2h14.5L464.946,223a20.842,20.842,0,0,0-7.778,4.878l-12.393,12.876v1.23l16.3,21.094c2.856,3.691,3.56,4,5.361,4.131l0.791,0.088-0.264,2.681H453.037l-0.264-.308s-0.527-2.241-4.746-7.6L436.382,247h-1.45v16.04a18.838,18.838,0,0,1-.352,3.691l6.152,0.659-0.308,2.373-20.039.439V267.52c2.944-.352,4.834-2.021,4.834-4.482V229.111c0-3.472,0-4.219-5.01-5.273v-2.2h5.317c9.1,0,11.426-.264,11.426-0.264Z" transform="translate(-393.777 -221.368)"/><g id="logo"><path class="cls-2" d="M411.051,221.368h1.775l7.075,11h-8.85a6.281,6.281,0,0,0-6.273,6.273V267.8a6.281,6.281,0,0,0,6.273,6.273h14.48a7.2,7.2,0,0,1,7.187,7.15l0.033,6.389,12.508-9.817,2.566-2.014,5.977,9.292-0.212.167-31.721,24.9-0.131-25.066H411.051A17.293,17.293,0,0,1,393.777,267.8V238.642A17.293,17.293,0,0,1,411.051,221.368Z" transform="translate(-393.777 -221.368)"/></g></svg>