<svg id="Layer_1" data-name="Layer 1" xmlns="http://www.w3.org/2000/svg" viewBox="0 0 91.462 112.788"><defs><style>.cls-1{fill:#3498db;}.cls-2{fill:#2e4053;}</style></defs><title>favicon</title><g id="logo"><path class="cls-1" d="M934.335,146.639h-1.775l-7.075,11h8.85a6.281,6.281,0,0,1,6.273,6.273v29.161a6.281,6.281,0,0,1-6.273,6.273h-14.48a7.2,7.2,0,0,0-7.187,7.15l-0.033,6.389-12.508-9.817-2.566-2.014-5.977,9.292,0.212,0.167,31.721,24.9,0.131-25.066h10.688a17.293,17.293,0,0,0,17.273-17.273V163.912A17.293,17.293,0,0,0,934.335,146.639Z" transform="translate(-860.146 -122.624)"/><path class="cls-2" d="M873.946,210.018a50.6,50.6,0,0,1-11.76,2.7,3.686,3.686,0,0,0-1.08.12c-0.642,0-.96-0.24-0.96-0.72l7.44-14.64a83.3,83.3,0,0,0,11.1-1.86,53.547,53.547,0,0,0,9.9-3.42q0.478-9.72-7.561-14.16-8.162-4.559-14.28,5.04l-0.359-5.4q0.958-1.319,2.1-3.12a39.047,39.047,0,0,1,2.7-3.72,51.03,51.03,0,0,1,4.14-4.86,24.509,24.509,0,0,1,5.46-4.32,11.832,11.832,0,0,1,6.24-1.68q3.24,0.062,6.24,3.18a17.2,17.2,0,0,1,5.28,12.36,31.113,31.113,0,0,1-2.881,12.96q-5.4,11.762-12.6,16.92A38.788,38.788,0,0,1,873.946,210.018Zm12-52.02,3.96-13.92q6.6-3.839,12.48-7.2l11.76-6.72q5.878-3.358,12.48-7.2,1.557-.959,1.319.84l-3.96,14.04q-6.48,3.842-12.42,7.14t-11.82,6.66q-5.88,3.361-12.479,7.2Q885.585,159.8,885.946,158Z" transform="translate(-860.146 -122.624)"/></g></svg>