<svg xmlns="http://www.w3.org/2000/svg" xmlns:xlink="http://www.w3.org/1999/xlink" viewBox="0,0,256,256" width="64px" height="64px" fill-rule="nonzero"><g fill="#3498db" fill-rule="nonzero" stroke="none" stroke-width="1" stroke-linecap="butt" stroke-linejoin="miter" stroke-miterlimit="10" stroke-dasharray="" stroke-dashoffset="0" font-family="none" font-weight="none" font-size="none" text-anchor="none" style="mix-blend-mode: normal"><g transform="scale(2,2)"><path d="M64,6c-32,0 -58,26 -58,58c0,32 26,58 58,58c32,0 58,-26 58,-58c0,-32 -26,-58 -58,-58zM64,12c28.7,0 52,23.3 52,52c0,28.7 -23.3,52 -52,52c-28.7,0 -52,-23.3 -52,-52c0,-28.7 23.3,-52 52,-52zM64,38c-1.7,0 -3,1.3 -3,3v5c0,1.7 1.3,3 3,3c1.7,0 3,-1.3 3,-3v-5c0,-1.7 -1.3,-3 -3,-3zM64,58c-1.7,0 -3,1.3 -3,3v26c0,1.7 1.3,3 3,3c1.7,0 3,-1.3 3,-3v-26c0,-1.7 -1.3,-3 -3,-3z"></path></g></g></svg>