<svg id="Layer_1" data-name="Layer 1" xmlns="http://www.w3.org/2000/svg" viewBox="0 0 178.94 112.788"><defs><style>.cls-1{fill:#3498db;}.cls-2{fill:#2e4053;}</style></defs><title>logo</title><g id="logo"><path class="cls-1" d="M716.7,137.819h-1.775l-7.075,11h8.85a6.281,6.281,0,0,1,6.273,6.273v29.161a6.281,6.281,0,0,1-6.273,6.273h-14.48a7.2,7.2,0,0,0-7.187,7.15L695,204.067l-12.508-9.817-2.566-2.014-5.977,9.292,0.212,0.167,31.721,24.9,0.131-25.066H716.7a17.293,17.293,0,0,0,17.273-17.273V155.093A17.293,17.293,0,0,0,716.7,137.819Z" transform="translate(-555.034 -113.805)"/><path class="cls-2" d="M573.994,139.58l-11.521,2.16,7.2-14.28,11.521-2.16,11.52-2.16-7.2,14.28Z" transform="translate(-555.034 -113.805)"/><path class="cls-2" d="M560.314,191.238a10.193,10.193,0,0,1-3.721-2.64,5.988,5.988,0,0,1-1.56-4.14,6.667,6.667,0,0,1,.18-1.5q0.18-.779.3-1.62a46.389,46.389,0,0,1,4.26-11.04,87.66,87.66,0,0,1,5.939-9.72,44.791,44.791,0,0,1,4.92-6.24q4.56-4.2,8.04-4.2a6.23,6.23,0,0,1,1.2.12,4.352,4.352,0,0,1,1.08.36q4.438,1.8,4.44,9.6l2.159,31.56-8.88,16.56-1.56-22.68a20.081,20.081,0,0,1-9.6,6,9.8,9.8,0,0,1-3.12.48A10.619,10.619,0,0,1,560.314,191.238Zm14.279-23.82q-0.961-2.759-4.439-2.76a4.488,4.488,0,0,0-3.12,1.2q-1.08.841-1.98,1.68a13.8,13.8,0,0,0-1.619,1.8,2.6,2.6,0,0,0-.721,1.68,3.286,3.286,0,0,0,.6,1.68,7.125,7.125,0,0,0,3.18,2.94,10.991,10.991,0,0,0,5.1,1.14,9.457,9.457,0,0,0,1.86-.18c0.6-.12,1.219-0.258,1.86-0.42q0.117-.6.18-1.2t0.06-1.2A19.344,19.344,0,0,0,574.594,167.418Z" transform="translate(-555.034 -113.805)"/><path class="cls-2" d="M603.634,184.278q1.08-2.579,2.64-5.94,3-6.6,6.12-6.6,2.039-.72,7.8-0.48,5.64,0.121,4.68,4.68a58.974,58.974,0,0,1-1.62,6.84,17.056,17.056,0,0,1-1.979,4.2q-1.2,1.8-3.48,4.56-3.482,4.2-10.92,7.92a66.111,66.111,0,0,1-13.62,5.16q-7.02,1.8-15.06,3.72l2.64-15.48a120.493,120.493,0,0,0,20.88-4.32Q602.552,186.859,603.634,184.278Z" transform="translate(-555.034 -113.805)"/><path class="cls-2" d="M645.273,119.9l6,72-8.761,12.12-3.72-41.88q-7.2,2.4-12.3,4.56a72.925,72.925,0,0,0-7.98,3.84q-5.88,3.482-12.6,14.16a1.557,1.557,0,0,1-1.439.84q-0.839,0-.24-2.04,4.32-13.919,12.6-20.52a93.717,93.717,0,0,1,9.36-6.54q5.158-3.178,11.4-6.3l-1.08-15.72Z" transform="translate(-555.034 -113.805)"/><path class="cls-2" d="M656.313,201.2a50.6,50.6,0,0,1-11.76,2.7,3.686,3.686,0,0,0-1.08.12c-0.642,0-.96-0.24-0.96-0.72l7.44-14.64a83.3,83.3,0,0,0,11.1-1.86,53.547,53.547,0,0,0,9.9-3.42q0.478-9.72-7.561-14.16-8.162-4.559-14.28,5.04l-0.359-5.4q0.958-1.319,2.1-3.12a39.047,39.047,0,0,1,2.7-3.72,51.03,51.03,0,0,1,4.14-4.86,24.509,24.509,0,0,1,5.46-4.32,11.832,11.832,0,0,1,6.24-1.68q3.24,0.062,6.24,3.18a17.2,17.2,0,0,1,5.28,12.36,31.113,31.113,0,0,1-2.881,12.96q-5.4,11.762-12.6,16.92A38.788,38.788,0,0,1,656.313,201.2Zm12-52.02,3.96-13.92q6.6-3.839,12.48-7.2l11.76-6.72q5.878-3.358,12.48-7.2,1.557-.959,1.319.84l-3.96,14.04q-6.48,3.842-12.42,7.14t-11.82,6.66q-5.88,3.361-12.479,7.2Q667.951,150.981,668.313,149.179Z" transform="translate(-555.034 -113.805)"/></g></svg>