<svg id="Layer_1" data-name="Layer 1" xmlns="http://www.w3.org/2000/svg" viewBox="0 0 248.631 94.346"><defs><style>.cls-1{fill:#2e4053;}.cls-2{fill:#3498db;}</style></defs><title>logo-en</title><path class="cls-1" d="M387.3,100.51s-2.373,2.769-2.373,8.789v12.744h1.318a22.7,22.7,0,0,0,3.472-2.769l12.612-13.052c1.274-1.362,1.494-3.032-2.329-3.516v-2.2h14.5l0.439,1.362a20.842,20.842,0,0,0-7.778,4.878l-12.393,12.876v1.23l16.3,21.094c2.856,3.691,3.56,4,5.361,4.131l0.791,0.088-0.264,2.681H403.037l-0.264-.308s-0.527-2.241-4.746-7.6l-11.646-15.073h-1.45v16.04a18.838,18.838,0,0,1-.352,3.691l6.152,0.659-0.308,2.373-20.039.439v-2.681c2.944-.352,4.834-2.021,4.834-4.482V107.981c0-3.472,0-4.219-5.01-5.273v-2.2h5.317c9.1,0,11.426-.264,11.426-0.264Z" transform="translate(-343.777 -94.666)"/><path class="cls-1" d="M445.349,125.383v16.3c0,2.153.352,3.384,1.758,3.384a6.545,6.545,0,0,0,3.164-1.23l1.143,1.978a13.032,13.032,0,0,1-8.965,3.911c-3.691,0-6.108-1.758-6.108-4.878v-1.143s-3.735,6.021-10.107,6.021c-4.307,0-8.481-2.681-8.481-8.13,0-7.295,8.481-10.811,15.864-11.865l2.549-.4a45.174,45.174,0,0,0-.4-7.6c-0.439-2.109-1.494-3.472-3.384-3.472-4.131,0-6.987,7.778-6.987,7.778h-3.3l-1.626-6.416a26.562,26.562,0,0,1,15.381-4.614C443.459,115.012,445.349,117.913,445.349,125.383Zm-11.25,7.6c-3.735.659-6.943,2.681-6.943,6.812,0,2.241,1.011,4.219,3.472,4.219a9,9,0,0,0,5.449-2.329v-9.053Z" transform="translate(-343.777 -94.666)"/><path class="cls-1" d="M467.271,94.841a35.623,35.623,0,0,0-.7,8.218v38.848a19.861,19.861,0,0,1-.4,3.911l5.8,0.659-0.264,2.153-18.545.439v-2.461c2.944-.352,4.131-2.109,4.131-4.7V105.432c0-2.944-.088-4.79-2.2-4.79h-2.681V98.357c11.6-2.329,14.634-3.691,14.634-3.691Z" transform="translate(-343.777 -94.666)"/><path class="cls-1" d="M489.064,114.221a35.25,35.25,0,0,0-.659,8.262v19.424a22.241,22.241,0,0,1-.352,3.911l5.8,0.659-0.308,2.153L475,149.07v-2.461c2.988-.352,4.131-2.109,4.131-4.7V124.724c0-2.988-.088-4.79-2.153-4.79h-2.9V117.6a90.64,90.64,0,0,0,14.766-3.6Zm-0.571-10.591c0,2.988-2.241,5.054-5.361,5.054s-5.361-2.065-5.361-5.054A5.366,5.366,0,0,1,488.493,103.63Z" transform="translate(-343.777 -94.666)"/><path class="cls-1" d="M510.726,114.221s-0.659,1.582-1.011,8.042c2.461-3.34,6.5-7.251,12.3-7.251,4.219,0,7.734,2.021,8.569,6.9,2.813-3.56,6.592-6.9,12.173-6.9,5.054,0,8.745,2.769,8.745,9.8v17.095a20.6,20.6,0,0,1-.352,3.823l5.8,0.747-0.308,2.153-17.534.439v-2.461c2.241-.352,3.12-2.109,3.12-4.7V127.625c0-5.1-1.362-6.24-4-6.24-2.725,0-7.383,1.318-7.383,4.263v16.26a20.6,20.6,0,0,1-.352,3.823l4.614,0.527-0.352,2.373-16.3.439v-2.461c2.241-.352,3.12-2.109,3.12-4.7V127.625c0-5.1-1.318-6.24-4-6.24a12.035,12.035,0,0,0-7.383,2.681v17.842a20.6,20.6,0,0,1-.352,3.823l4.614,0.527-0.352,2.373-17.314.439v-2.461c2.988-.352,4.131-2.109,4.131-4.7V124.724c0-2.988-.088-4.79-2.153-4.79h-2.9V117.6a86.591,86.591,0,0,0,14.634-3.6Z" transform="translate(-343.777 -94.666)"/><path class="cls-1" d="M586.344,125.383v16.3c0,2.153.352,3.384,1.758,3.384a6.545,6.545,0,0,0,3.164-1.23l1.143,1.978a13.032,13.032,0,0,1-8.965,3.911c-3.691,0-6.108-1.758-6.108-4.878v-1.143s-3.735,6.021-10.107,6.021c-4.307,0-8.481-2.681-8.481-8.13,0-7.295,8.481-10.811,15.864-11.865l2.549-.4a45.174,45.174,0,0,0-.4-7.6c-0.439-2.109-1.494-3.472-3.384-3.472-4.131,0-6.987,7.778-6.987,7.778h-3.3l-1.626-6.416a26.562,26.562,0,0,1,15.381-4.614C584.454,115.012,586.344,117.913,586.344,125.383Zm-11.25,7.6c-3.735.659-6.943,2.681-6.943,6.812,0,2.241,1.011,4.219,3.472,4.219a9,9,0,0,0,5.449-2.329v-9.053Z" transform="translate(-343.777 -94.666)"/><g id="logo"><path class="cls-2" d="M361.051,100.238h1.775l7.075,11h-8.85a6.281,6.281,0,0,0-6.273,6.273v29.161a6.281,6.281,0,0,0,6.273,6.273h14.48a7.2,7.2,0,0,1,7.187,7.15l0.033,6.389,12.508-9.817,2.566-2.014,5.977,9.292-0.212.167-31.721,24.9-0.131-25.066H361.051a17.293,17.293,0,0,1-17.273-17.273V117.511A17.293,17.293,0,0,1,361.051,100.238Z" transform="translate(-343.777 -94.666)"/></g></svg>