<svg id="Layer_1" data-name="Layer 1" xmlns="http://www.w3.org/2000/svg" viewBox="0 0 248.626 109.332"><defs><style>.cls-1{font-size:90px;fill:#2e4053;font-family:AR Baghdad Font;}.cls-2{fill:#3498db;}</style></defs><title>logo-en</title><text class="cls-1" transform="translate(23.181 69.17)">Kalima</text><g id="logo"><path class="cls-2" d="M361.051,100.238h1.775l7.075,11h-8.85a6.281,6.281,0,0,0-6.273,6.273v29.161a6.281,6.281,0,0,0,6.273,6.273h14.48a7.2,7.2,0,0,1,7.187,7.15l0.033,6.389,12.508-9.817,2.566-2.014,5.977,9.292-0.212.167-31.721,24.9-0.131-25.066H361.051a17.293,17.293,0,0,1-17.273-17.273V117.511A17.293,17.293,0,0,1,361.051,100.238Z" transform="translate(-343.777 -79.68)"/></g></svg>