<svg width="118" height="118" viewBox="0 0 118 118" fill="none" xmlns="http://www.w3.org/2000/svg">
<path d="M18.0137 22.3334C9.11995 32.2664 4.14063 45.094 4.0034 58.426C3.66539 88.8899 28.5378 113.94 59.0017 113.997C89.4226 114.055 114 89.4113 114 58.9989C114 29.0535 90.0672 4.68526 60.2907 4.00064C60.1231 3.99526 59.9562 4.02368 59.7998 4.08421C59.6434 4.14474 59.5008 4.23614 59.3805 4.35295C59.2602 4.46977 59.1647 4.60962 59.0996 4.76415C59.0345 4.91869 59.0012 5.08475 59.0017 5.25243V29.2082" stroke="#3498DB" stroke-width="6.5" stroke-linecap="round" stroke-linejoin="round"/>
<path d="M52.5219 65.4813L29.8924 33.1125C29.5793 32.6641 29.4341 32.1197 29.4822 31.5749C29.5302 31.0301 29.7685 30.5195 30.1552 30.1328C30.542 29.746 31.0525 29.5078 31.5973 29.4597C32.1422 29.4116 32.6865 29.5569 33.135 29.8699L65.5038 52.4994C67.4892 53.9294 68.8319 56.0834 69.2414 58.4957C69.6508 60.9079 69.0942 63.3843 67.6919 65.3894C66.2896 67.3944 64.1544 68.7667 61.748 69.2096C59.3417 69.6524 56.8578 69.1302 54.8336 67.7557C53.9385 67.1355 53.1566 66.3662 52.5219 65.4813Z" fill="#3498DB"/>
</svg>
