<svg xmlns="http://www.w3.org/2000/svg" viewBox="0 0 70 70"><defs><style>.cls-1{fill:#fff;}</style></defs><g id="Layer_2" data-name="Layer 2"><g id="ELEMENTS"><path class="cls-1" d="M40.77,35.66l-8.55,4.25c-.33.17-1.46-.08-1.46-.46V30.77c0-.38,1.14-.63,1.48-.44l8.18,4.45C40.77,35,41.12,35.48,40.77,35.66Z"/><path class="cls-1" d="M35,0A35,35,0,1,0,70,35,35,35,0,0,0,35,0ZM52,39.44a7.45,7.45,0,0,1-7.46,7.46H25.45A7.47,7.47,0,0,1,18,39.44V30.56a7.47,7.47,0,0,1,7.46-7.46H44.53A7.45,7.45,0,0,1,52,30.56Z"/></g></g></svg>